# xmcd
#
# Track frame offsets: 
#        150
#        13056
#        28596
#        47904
#        60829
#        77471
#        96066
#        113003
#        129747
#        147059
#        159132
#        176265
#        193136
#        208067
#        220662
#        236722
#        255603
#        271183
#        288234
#        309396
#        325596
#        343337
#
# Disc length: 4793 seconds
#
# Revision: 0
# Processed by: cddbd v1.5.2PL0 Copyright (c) Steve Scherf et al.
# Submitted via: ExactAudioCopy v0.99pb4
#
DISCID=2c12b716
DTITLE=Various Artist - prevue promo 1113A-2
DYEAR=2003
DGENRE=pop
TTITLE0=B2K and Marques Houston - My Girl
TTITLE1=Blue Man Group and Dave Matthews - Sing Along
TTITLE2=Suzanne Vega - Penitent
TTITLE3=Hilary Duff - Why Not(McMix - From "The Lizzie McGuire Movie")
TTITLE4=Amanda Perez - Angel(D-Lo Version)
TTITLE5=Solange - Crush
TTITLE6=R. Kelly - Snake(Lyric - "Radio Edit" - No Rap)
TTITLE7=Loon and Kelis - How You Want That(Lyric - "Radio Edit")
TTITLE8=Libby Kirkpatrick - Vaulted Heart(Live Album Version - Applaus
TTITLE8=e Tag)
TTITLE9=Lisa Germano - It's Party Time
TTITLE10=Edwyn Collins - Johnny Teardrop
TTITLE11=Roots and Cody ChestnuTT - Seed, The (2.0 - Lyric Content!!! 
TTITLE11="Radio Edit")
TTITLE12=Wakefield - Say You Will
TTITLE13=Rise Against - Like An Angel
TTITLE14=Avatar - Hills Are Burning
TTITLE15=All-American Rejects, The - Last Song, The(Edit)
TTITLE16=Memento - Nothing Sacred
TTITLE17=Big Dismal - Remember (I.O.U.)
TTITLE18=Radiohead - There There
TTITLE19=Blank Theory - Sour Times
TTITLE20=Ra - Rectifier
TTITLE21=Paul Shortino's The Cutt - I Believe
EXTD=
EXTT0=
EXTT1=
EXTT2=
EXTT3=
EXTT4=
EXTT5=
EXTT6=
EXTT7=
EXTT8=
EXTT9=
EXTT10=
EXTT11=
EXTT12=
EXTT13=
EXTT14=
EXTT15=
EXTT16=
EXTT17=
EXTT18=
EXTT19=
EXTT20=
EXTT21=
PLAYORDER=
